<svg xmlns="http://www.w3.org/2000/svg" width="170.021" height="148.966"><defs><linearGradient id="a" x1=".5" y1=".8" x2=".5" y2=".154" gradientUnits="objectBoundingBox"><stop offset="0" stop-color="#ff8732"/><stop offset=".5" stop-color="#ff9b46"/><stop offset=".705" stop-color="#ffa348"/><stop offset="1" stop-color="#ffb950"/></linearGradient><linearGradient id="b" x1=".5" y1=".9" x2=".5" y2=".11" gradientUnits="objectBoundingBox"><stop offset="0" stop-color="#ff4600"/><stop offset=".5" stop-color="#ff5a00"/><stop offset=".705" stop-color="#ff6200"/><stop offset="1" stop-color="#ff7800"/></linearGradient><linearGradient id="c" x1=".5" y1=".928" x2=".5" y2=".101" gradientUnits="objectBoundingBox"><stop offset="0" stop-color="#af0000"/><stop offset=".4" stop-color="#c30000"/><stop offset="1" stop-color="#cd0000"/></linearGradient></defs><path d="M168.094 177.157c29.233.89 68.924-10.474 43.553-66.746 4.4-50.57-30.473-53.986-55.657-49.743C112 40.815 58.236 46.4 65.517 90.577 51.014 103.985 44.8 116.035 54.2 129.369c-5.866 20.434 6.768 38.489 48.659 47.092 25.332 34.22 45.752 24.496 65.235.696z" transform="translate(-49.73 -49.73)" fill="url(#a)"/><path d="M104.316 179.665c23.945 4.917 46.659 6.886 65.235.7 24.095-8.029 40.358-30.052 43.554-66.746-13.6-30.159-33.8-45.558-55.658-49.743-32.728-6.269-68.537 9.624-90.473 29.905A137.638 137.638 0 0070.331 109c-7.127 7.53-12.357 15.5-14.674 23.574 8.825 12.492 30.827 24.089 35.306 26.4a190.67 190.67 0 0013.352 20.693" transform="translate(-51.214 -52.933)" fill="url(#b)"/><path d="M162.379 64.336c-28.879 4.876-66.245 23.077-87.115 45.126A244.163 244.163 0 0095.9 159.435c26.776 13.8 56.82 20.725 78.588 21.39 40.826-49.88 27-98.811-12.1-116.489z" transform="translate(-56.12 -53.397)" fill="url(#c)"/><path d="M58.218 61.292c0-8.448-4.81-12.651-12.785-12.651a60.092 60.092 0 00-8.538.6 1.21 1.21 0 00-1.163 1.4v26.462a1.212 1.212 0 001.163 1.4 60.323 60.323 0 008.538.6c7.976 0 12.785-4.2 12.785-12.651zm-6.853 5.164c0 5.4-2.326 6.846-5.932 6.846-1 0-2.285-.04-2.846-.08v-18.7c.562-.04 1.844-.08 2.846-.08 3.606 0 5.932 1.442 5.932 6.846zM73.45 79.107c6.614 0 11.864-3.564 11.864-12.852v-4.764c0-9.287-5.25-12.851-11.864-12.851s-11.864 3.563-11.864 12.851v4.766c0 9.286 5.25 12.85 11.864 12.85zm-4.93-17.616c0-4.8 1.563-6.846 4.93-6.846s4.97 2.042 4.97 6.846v4.766c0 4.8-1.6 6.847-4.97 6.847s-4.93-2.042-4.93-6.847zM114.885 49h-3.768a1.872 1.872 0 00-1.764 1.081l-6.132 11.41c-.16.32-.28.52-.44.52s-.281-.2-.442-.52l-6.132-11.41A1.871 1.871 0 0094.444 49h-3.767a1.327 1.327 0 00-1.444 1.361v27.823c0 .441.361.561.682.561h5.292a.73.73 0 00.64-.8V61.251c0-.279.121-.32.2-.32.12 0 .2.08.32.281l3.607 6.606a1.288 1.288 0 001.2.681h3.211a1.288 1.288 0 001.2-.681l3.607-6.606c.121-.2.2-.281.321-.281.08 0 .2.041.2.32v16.694a.731.731 0 00.642.8h5.29c.32 0 .682-.12.682-.561V50.401A1.357 1.357 0 00114.885 49zM49.969 82.809a18.4 18.4 0 00-2.636.186.373.373 0 00-.358.432v8.172a.372.372 0 00.358.431 18.518 18.518 0 002.636.186c2.462 0 3.947-1.3 3.947-3.906v-1.594c.001-2.609-1.484-3.907-3.947-3.907zm1.831 5.5c0 1.669-.718 2.113-1.831 2.113-.31 0-.705-.011-.879-.023v-5.773c.173-.012.569-.025.879-.025 1.113 0 1.831.446 1.831 2.113zm8.985-5.34a14.391 14.391 0 00-2.388-.16c-1.6 0-3.02.4-3.02 2.645v4.1c0 2.25 1.411 2.657 3.007 2.657a14.562 14.562 0 002.4-.161c.173-.025.247-.1.247-.258v-1.15a.247.247 0 00-.246-.243h-2.512c-.582 0-.792-.2-.792-.841v-1.31h3.204a.248.248 0 00.247-.247v-1.174a.248.248 0 00-.247-.248h-3.2v-1.125c0-.643.211-.84.792-.84h2.508a.248.248 0 00.247-.247v-1.15c.003-.161-.071-.218-.247-.248zm8.878-.049H67.93a.252.252 0 00-.235.222l-1.546 7.132c-.025.136-.062.185-.173.185s-.149-.049-.175-.185l-1.547-7.132a.264.264 0 00-.247-.222h-1.721a.21.21 0 00-.223.2c0 .025.013.037.013.062l1.844 7.663a2.214 2.214 0 004.1 0l1.844-7.663a.58.58 0 01.012-.062.192.192 0 00-.213-.2zm6.386.049a14.364 14.364 0 00-2.387-.16c-1.6 0-3.02.4-3.02 2.645v4.1c0 2.25 1.411 2.657 3.007 2.657a14.534 14.534 0 002.4-.161c.174-.025.247-.1.247-.258v-1.15a.246.246 0 00-.247-.246h-2.512c-.582 0-.792-.2-.792-.841v-1.31h3.205a.248.248 0 00.247-.247v-1.174a.248.248 0 00-.247-.248h-3.205v-1.125c0-.643.21-.84.792-.84h2.512a.248.248 0 00.247-.247v-1.15c.001-.158-.073-.215-.247-.245zm6.846 7.43h-2.129c-.581 0-.792-.2-.792-.841v-6.391a.248.248 0 00-.248-.247h-1.621a.248.248 0 00-.247.247v6.395c0 2.25 1.422 2.657 3.019 2.657a12.674 12.674 0 002.018-.161c.173-.037.247-.1.247-.258v-1.15a.247.247 0 00-.247-.251zm4.469-7.59c-2.042 0-3.662 1.1-3.662 3.967v1.471c0 2.867 1.62 3.967 3.662 3.967s3.664-1.1 3.664-3.967v-1.471c.003-2.868-1.622-3.967-3.664-3.967zm1.535 5.439c0 1.483-.495 2.113-1.535 2.113s-1.521-.631-1.521-2.113v-1.471c0-1.483.482-2.113 1.521-2.113s1.535.63 1.535 2.113zm6.722-5.439a18.377 18.377 0 00-2.512.16c-.383.062-.557.173-.557.594v8.306a.238.238 0 00.247.235h1.6a.248.248 0 00.247-.248v-3c.309.013.7.037 1 .037 1.844 0 3.687-.679 3.687-2.991v-.111c0-2.327-1.843-2.982-3.712-2.982zm1.609 3.09c0 .84-.484 1.248-1.584 1.248-.136 0-.867-.012-1-.025v-2.523c.148-.012.829-.037 1-.037 1.04 0 1.584.345 1.584 1.224zm11.3-2.979h-1.164a.579.579 0 00-.545.335l-1.893 3.522c-.05.1-.087.16-.137.16s-.086-.061-.136-.16l-1.893-3.522a.578.578 0 00-.544-.335h-1.164a.41.41 0 00-.445.42v8.591c0 .136.111.173.211.173h1.633a.225.225 0 00.2-.248v-5.154c0-.086.037-.1.062-.1s.062.025.1.086l1.114 2.04a.4.4 0 00.371.21h.99a.4.4 0 00.371-.21l1.113-2.04c.038-.061.062-.086.1-.086s.062.013.062.1v5.154a.225.225 0 00.2.248h1.632c.1 0 .211-.037.211-.173v-8.578a.419.419 0 00-.449-.433zm7.55.049a14.357 14.357 0 00-2.387-.16c-1.6 0-3.019.4-3.019 2.645v4.1c0 2.25 1.41 2.657 3.007 2.657a14.524 14.524 0 002.4-.161c.175-.025.248-.1.248-.258v-1.15a.247.247 0 00-.248-.246h-2.512c-.581 0-.792-.2-.792-.841v-1.31h3.205a.249.249 0 00.248-.247v-1.174a.249.249 0 00-.248-.248h-3.205v-1.125c0-.643.211-.84.792-.84h2.512a.248.248 0 00.248-.247v-1.15c0-.158-.074-.215-.249-.245zm8.851-.049h-1.46a.238.238 0 00-.247.235v5.229c0 .086-.037.111-.062.111s-.049-.025-.1-.1l-2.934-5.094c-.148-.258-.271-.383-.52-.383h-1.25a.47.47 0 00-.47.47v8.466a.248.248 0 00.247.248h1.461a.248.248 0 00.247-.248v-5c0-.075.025-.1.061-.1s.062.025.112.1l2.822 4.869a.64.64 0 00.643.383h1.212a.481.481 0 00.483-.47v-8.479a.238.238 0 00-.245-.237zm7.49 0h-6.138a.239.239 0 00-.247.235v1.273a.238.238 0 00.247.235h2.018v7.193a.248.248 0 00.247.248h1.621a.248.248 0 00.247-.248v-7.194h2a.249.249 0 00.26-.235v-1.273a.25.25 0 00-.255-.234z" fill="#fff"/></svg>